<?xml version="1.0" standalone="no"?>
<!DOCTYPE svg PUBLIC "-//W3C//DTD SVG 20010904//EN"
 "http://www.w3.org/TR/2001/REC-SVG-20010904/DTD/svg10.dtd">
<svg version="1.0" xmlns="http://www.w3.org/2000/svg"
 width="500.000000pt" height="500.000000pt" viewBox="0 0 500.000000 500.000000"
 preserveAspectRatio="xMidYMid meet">
<metadata>
Created by potrace 1.16, written by Peter Selinger 2001-2019
</metadata>
<g transform="translate(0.000000,500.000000) scale(0.100000,-0.100000)"
fill="#000000" stroke="none">
<path d="M2337 4624 c-148 -27 -306 -104 -394 -193 -26 -26 -51 -41 -78 -46
-83 -15 -204 -59 -320 -115 -451 -222 -740 -670 -844 -1310 -24 -152 -41 -345
-41 -483 l0 -102 -93 -145 c-313 -489 -336 -569 -194 -696 96 -86 295 -166
562 -225 89 -19 133 -33 140 -45 202 -340 471 -608 750 -748 216 -108 390
-149 640 -150 208 0 324 20 535 96 363 130 687 411 906 785 31 54 63 108 70
119 11 18 29 24 101 34 262 36 472 103 566 181 152 126 48 387 -324 807 l-103
116 -2 216 c-3 396 -65 691 -203 975 -94 191 -214 342 -363 455 -174 132 -359
208 -598 246 -100 16 -105 18 -149 61 -95 92 -195 145 -319 169 -89 17 -143
17 -245 -2z m234 -748 c13 -28 54 -49 80 -41 14 5 25 -6 48 -47 17 -29 31 -65
31 -80 0 -26 -3 -28 -40 -28 -31 0 -40 4 -40 18 0 28 -37 81 -72 103 -26 16
-45 19 -91 16 -56 -3 -59 -2 -74 27 -14 27 -14 31 3 43 10 7 44 13 81 13 57 0
65 -2 74 -24z m-177 -47 c18 -30 18 -31 -2 -52 -31 -35 -42 -63 -42 -107 0
-44 11 -72 42 -107 20 -21 20 -22 2 -52 -10 -17 -22 -31 -27 -31 -14 0 -55 46
-76 87 -18 36 -18 43 -6 59 18 24 18 64 0 88 -12 16 -12 23 6 59 21 41 62 87
76 87 5 0 17 -14 27 -31z m336 -196 c0 -16 -14 -52 -31 -81 -23 -41 -34 -52
-48 -47 -26 8 -67 -13 -80 -41 -9 -22 -17 -24 -74 -24 -37 0 -71 6 -81 13 -17
12 -17 16 -3 43 15 29 18 30 74 27 46 -3 65 0 91 16 35 22 72 75 72 104 0 13
9 17 40 17 37 0 40 -2 40 -27z m77 -787 c257 -34 496 -88 733 -166 121 -40
356 -135 373 -150 5 -4 -36 5 -90 22 -513 153 -967 216 -1473 205 -341 -7
-572 -37 -870 -112 -138 -35 -368 -111 -475 -159 -96 -42 -36 -4 113 72 343
176 649 264 1042 302 128 12 509 4 647 -14z m-33 -703 c-17 -35 -16 -201 1
-258 29 -100 82 -141 285 -218 250 -96 420 -102 481 -16 30 42 70 211 75 314
3 79 6 90 21 87 38 -7 262 -73 323 -96 78 -29 77 -19 13 -190 -166 -447 -410
-786 -708 -985 -179 -120 -314 -178 -530 -228 -139 -32 -359 -36 -497 -10
-400 79 -723 325 -996 760 -99 158 -282 569 -263 590 8 8 216 66 363 101 l98
23 0 -61 c0 -68 38 -223 75 -303 39 -87 121 -114 268 -88 105 18 229 61 374
130 129 61 164 98 184 193 13 62 5 220 -11 236 -27 27 1 31 284 34 157 2 168
1 160 -15z"/>
</g>
</svg>
